<mxfile host="Electron" agent="Mozilla/5.0 (Macintosh; Intel Mac OS X 10_15_7) AppleWebKit/537.36 (KHTML, like Gecko) draw.io/24.7.17 Chrome/128.0.6613.36 Electron/32.0.1 Safari/537.36" version="24.7.17" pages="2">
  <diagram name="row-major" id="dxTa-nf-bOEMPfZfTC0G">
    <mxGraphModel dx="174" dy="154" grid="1" gridSize="10" guides="1" tooltips="1" connect="1" arrows="1" fold="1" page="1" pageScale="1" pageWidth="850" pageHeight="1100" math="0" shadow="0">
      <root>
        <mxCell id="nCHsW1UH-Y1dxsn32Wa3-0" />
        <mxCell id="nCHsW1UH-Y1dxsn32Wa3-1" parent="nCHsW1UH-Y1dxsn32Wa3-0" />
        <mxCell id="nCHsW1UH-Y1dxsn32Wa3-2" value="" style="endArrow=none;dashed=1;html=1;rounded=0;entryX=0.75;entryY=0;entryDx=0;entryDy=0;exitX=0.75;exitY=1;exitDx=0;exitDy=0;strokeWidth=0.5;strokeColor=#CFCFCF;fontSize=5;fontFamily=Tahoma;" edge="1" parent="nCHsW1UH-Y1dxsn32Wa3-1">
          <mxGeometry width="50" height="50" relative="1" as="geometry">
            <mxPoint x="60" y="60" as="sourcePoint" />
            <mxPoint x="60" as="targetPoint" />
          </mxGeometry>
        </mxCell>
        <mxCell id="nCHsW1UH-Y1dxsn32Wa3-64" value="" style="endArrow=none;dashed=1;html=1;rounded=0;entryX=0.75;entryY=0;entryDx=0;entryDy=0;exitX=0.75;exitY=1;exitDx=0;exitDy=0;strokeWidth=0.5;strokeColor=#CFCFCF;fontSize=5;fontFamily=Tahoma;" edge="1" parent="nCHsW1UH-Y1dxsn32Wa3-1">
          <mxGeometry width="50" height="50" relative="1" as="geometry">
            <mxPoint x="50" y="60" as="sourcePoint" />
            <mxPoint x="50" as="targetPoint" />
          </mxGeometry>
        </mxCell>
        <mxCell id="nCHsW1UH-Y1dxsn32Wa3-65" value="" style="endArrow=none;dashed=1;html=1;rounded=0;entryX=0.75;entryY=0;entryDx=0;entryDy=0;exitX=0.75;exitY=1;exitDx=0;exitDy=0;strokeWidth=0.5;strokeColor=#CFCFCF;fontSize=5;fontFamily=Tahoma;" edge="1" parent="nCHsW1UH-Y1dxsn32Wa3-1">
          <mxGeometry width="50" height="50" relative="1" as="geometry">
            <mxPoint x="30" y="60" as="sourcePoint" />
            <mxPoint x="30" as="targetPoint" />
          </mxGeometry>
        </mxCell>
        <mxCell id="nCHsW1UH-Y1dxsn32Wa3-66" value="" style="endArrow=none;dashed=1;html=1;rounded=0;entryX=0.75;entryY=0;entryDx=0;entryDy=0;exitX=0.75;exitY=1;exitDx=0;exitDy=0;strokeWidth=0.5;strokeColor=#CFCFCF;fontSize=5;fontFamily=Tahoma;" edge="1" parent="nCHsW1UH-Y1dxsn32Wa3-1">
          <mxGeometry width="50" height="50" relative="1" as="geometry">
            <mxPoint x="20" y="60" as="sourcePoint" />
            <mxPoint x="20" as="targetPoint" />
          </mxGeometry>
        </mxCell>
        <mxCell id="nCHsW1UH-Y1dxsn32Wa3-67" value="" style="endArrow=none;dashed=1;html=1;rounded=0;entryX=0.75;entryY=0;entryDx=0;entryDy=0;exitX=0.75;exitY=1;exitDx=0;exitDy=0;strokeWidth=0.5;strokeColor=#CFCFCF;fontSize=5;fontFamily=Tahoma;" edge="1" parent="nCHsW1UH-Y1dxsn32Wa3-1">
          <mxGeometry width="50" height="50" relative="1" as="geometry">
            <mxPoint x="10" y="60" as="sourcePoint" />
            <mxPoint x="10" as="targetPoint" />
          </mxGeometry>
        </mxCell>
        <mxCell id="nCHsW1UH-Y1dxsn32Wa3-68" value="" style="endArrow=none;dashed=1;html=1;rounded=0;entryX=0.75;entryY=0;entryDx=0;entryDy=0;exitX=0.75;exitY=1;exitDx=0;exitDy=0;strokeWidth=0.5;strokeColor=#CFCFCF;fontSize=5;fontFamily=Tahoma;" edge="1" parent="nCHsW1UH-Y1dxsn32Wa3-1">
          <mxGeometry width="50" height="50" relative="1" as="geometry">
            <mxPoint x="70" y="60" as="sourcePoint" />
            <mxPoint x="70" as="targetPoint" />
          </mxGeometry>
        </mxCell>
        <mxCell id="EgG5US5XDcpD_LXcHYMf-1" value="" style="endArrow=none;dashed=1;html=1;rounded=0;entryX=0;entryY=0;entryDx=0;entryDy=0;exitX=1;exitY=0;exitDx=0;exitDy=0;strokeWidth=0.5;strokeColor=#CFCFCF;fontSize=5;fontFamily=Tahoma;" edge="1" parent="nCHsW1UH-Y1dxsn32Wa3-1">
          <mxGeometry width="50" height="50" relative="1" as="geometry">
            <mxPoint x="80" y="40" as="sourcePoint" />
            <mxPoint y="40" as="targetPoint" />
          </mxGeometry>
        </mxCell>
        <mxCell id="EgG5US5XDcpD_LXcHYMf-2" value="" style="endArrow=none;dashed=1;html=1;rounded=0;entryX=0;entryY=0;entryDx=0;entryDy=0;exitX=1;exitY=0;exitDx=0;exitDy=0;strokeWidth=0.5;strokeColor=#CFCFCF;fontSize=5;fontFamily=Tahoma;" edge="1" parent="nCHsW1UH-Y1dxsn32Wa3-1">
          <mxGeometry width="50" height="50" relative="1" as="geometry">
            <mxPoint x="80" y="30" as="sourcePoint" />
            <mxPoint y="30" as="targetPoint" />
          </mxGeometry>
        </mxCell>
        <mxCell id="EgG5US5XDcpD_LXcHYMf-3" value="" style="endArrow=none;dashed=1;html=1;rounded=0;entryX=0;entryY=0;entryDx=0;entryDy=0;exitX=1;exitY=0;exitDx=0;exitDy=0;strokeWidth=0.5;strokeColor=#CFCFCF;fontSize=5;fontFamily=Tahoma;" edge="1" parent="nCHsW1UH-Y1dxsn32Wa3-1">
          <mxGeometry width="50" height="50" relative="1" as="geometry">
            <mxPoint x="80" y="20" as="sourcePoint" />
            <mxPoint y="20" as="targetPoint" />
          </mxGeometry>
        </mxCell>
        <mxCell id="EgG5US5XDcpD_LXcHYMf-4" value="" style="endArrow=none;dashed=1;html=1;rounded=0;entryX=0;entryY=0;entryDx=0;entryDy=0;exitX=1;exitY=0;exitDx=0;exitDy=0;strokeWidth=0.5;strokeColor=#CFCFCF;fontSize=5;fontFamily=Tahoma;" edge="1" parent="nCHsW1UH-Y1dxsn32Wa3-1">
          <mxGeometry width="50" height="50" relative="1" as="geometry">
            <mxPoint x="80" y="10" as="sourcePoint" />
            <mxPoint y="10" as="targetPoint" />
          </mxGeometry>
        </mxCell>
        <mxCell id="EgG5US5XDcpD_LXcHYMf-6" value="" style="endArrow=none;dashed=1;html=1;rounded=0;entryX=0.75;entryY=0;entryDx=0;entryDy=0;exitX=0.75;exitY=1;exitDx=0;exitDy=0;strokeWidth=0.5;strokeColor=#CFCFCF;fontSize=5;fontFamily=Tahoma;" edge="1" parent="nCHsW1UH-Y1dxsn32Wa3-1">
          <mxGeometry width="50" height="50" relative="1" as="geometry">
            <mxPoint x="40" y="60" as="sourcePoint" />
            <mxPoint x="40" as="targetPoint" />
          </mxGeometry>
        </mxCell>
        <mxCell id="nCHsW1UH-Y1dxsn32Wa3-3" value="" style="group;strokeColor=none;fillColor=none;fontSize=5;fontFamily=Tahoma;" vertex="1" connectable="0" parent="nCHsW1UH-Y1dxsn32Wa3-1">
          <mxGeometry width="80" height="60" as="geometry" />
        </mxCell>
        <mxCell id="nCHsW1UH-Y1dxsn32Wa3-4" value="0" style="whiteSpace=wrap;html=1;aspect=fixed;strokeWidth=1;strokeColor=none;fontSize=5;fontFamily=Tahoma;fillColor=none;" vertex="1" parent="nCHsW1UH-Y1dxsn32Wa3-3">
          <mxGeometry width="10" height="10" as="geometry" />
        </mxCell>
        <mxCell id="nCHsW1UH-Y1dxsn32Wa3-5" value="9" style="whiteSpace=wrap;html=1;aspect=fixed;strokeWidth=1;strokeColor=none;fontSize=5;fontFamily=Tahoma;fillColor=none;" vertex="1" parent="nCHsW1UH-Y1dxsn32Wa3-3">
          <mxGeometry x="10" y="10" width="10" height="10" as="geometry" />
        </mxCell>
        <mxCell id="nCHsW1UH-Y1dxsn32Wa3-6" value="8" style="whiteSpace=wrap;html=1;aspect=fixed;strokeWidth=1;strokeColor=none;fontSize=5;fontFamily=Tahoma;fillColor=none;" vertex="1" parent="nCHsW1UH-Y1dxsn32Wa3-3">
          <mxGeometry y="10" width="10" height="10" as="geometry" />
        </mxCell>
        <mxCell id="nCHsW1UH-Y1dxsn32Wa3-7" value="1" style="whiteSpace=wrap;html=1;aspect=fixed;strokeWidth=1;strokeColor=none;fontSize=5;fontFamily=Tahoma;fillColor=none;" vertex="1" parent="nCHsW1UH-Y1dxsn32Wa3-3">
          <mxGeometry x="10" width="10" height="10" as="geometry" />
        </mxCell>
        <mxCell id="nCHsW1UH-Y1dxsn32Wa3-8" value="16" style="whiteSpace=wrap;html=1;aspect=fixed;strokeWidth=1;strokeColor=none;fontSize=5;fontFamily=Tahoma;fillColor=none;" vertex="1" parent="nCHsW1UH-Y1dxsn32Wa3-3">
          <mxGeometry y="20" width="10" height="10" as="geometry" />
        </mxCell>
        <mxCell id="nCHsW1UH-Y1dxsn32Wa3-9" value="25" style="whiteSpace=wrap;html=1;aspect=fixed;strokeWidth=1;strokeColor=none;fontSize=5;fontFamily=Tahoma;fillColor=none;" vertex="1" parent="nCHsW1UH-Y1dxsn32Wa3-3">
          <mxGeometry x="10" y="30" width="10" height="10" as="geometry" />
        </mxCell>
        <mxCell id="nCHsW1UH-Y1dxsn32Wa3-10" value="24" style="whiteSpace=wrap;html=1;aspect=fixed;strokeWidth=1;strokeColor=none;fontSize=5;fontFamily=Tahoma;fillColor=none;" vertex="1" parent="nCHsW1UH-Y1dxsn32Wa3-3">
          <mxGeometry y="30" width="10" height="10" as="geometry" />
        </mxCell>
        <mxCell id="nCHsW1UH-Y1dxsn32Wa3-11" value="17" style="whiteSpace=wrap;html=1;aspect=fixed;strokeWidth=1;strokeColor=none;fontSize=5;fontFamily=Tahoma;fillColor=none;" vertex="1" parent="nCHsW1UH-Y1dxsn32Wa3-3">
          <mxGeometry x="10" y="20" width="10" height="10" as="geometry" />
        </mxCell>
        <mxCell id="nCHsW1UH-Y1dxsn32Wa3-12" value="2" style="whiteSpace=wrap;html=1;aspect=fixed;strokeWidth=1;strokeColor=none;fontSize=5;fontFamily=Tahoma;fillColor=none;" vertex="1" parent="nCHsW1UH-Y1dxsn32Wa3-3">
          <mxGeometry x="20" width="10" height="10" as="geometry" />
        </mxCell>
        <mxCell id="nCHsW1UH-Y1dxsn32Wa3-13" value="11" style="whiteSpace=wrap;html=1;aspect=fixed;strokeWidth=1;strokeColor=none;fontSize=5;fontFamily=Tahoma;fillColor=none;" vertex="1" parent="nCHsW1UH-Y1dxsn32Wa3-3">
          <mxGeometry x="30" y="10" width="10" height="10" as="geometry" />
        </mxCell>
        <mxCell id="nCHsW1UH-Y1dxsn32Wa3-14" value="10" style="whiteSpace=wrap;html=1;aspect=fixed;strokeWidth=1;strokeColor=none;fontSize=5;fontFamily=Tahoma;fillColor=none;" vertex="1" parent="nCHsW1UH-Y1dxsn32Wa3-3">
          <mxGeometry x="20" y="10" width="10" height="10" as="geometry" />
        </mxCell>
        <mxCell id="nCHsW1UH-Y1dxsn32Wa3-15" value="3" style="whiteSpace=wrap;html=1;aspect=fixed;strokeWidth=1;strokeColor=none;fontSize=5;fontFamily=Tahoma;fillColor=none;" vertex="1" parent="nCHsW1UH-Y1dxsn32Wa3-3">
          <mxGeometry x="30" width="10" height="10" as="geometry" />
        </mxCell>
        <mxCell id="nCHsW1UH-Y1dxsn32Wa3-16" value="18" style="whiteSpace=wrap;html=1;aspect=fixed;strokeWidth=1;strokeColor=none;fontSize=5;fontFamily=Tahoma;fillColor=none;" vertex="1" parent="nCHsW1UH-Y1dxsn32Wa3-3">
          <mxGeometry x="20" y="20" width="10" height="10" as="geometry" />
        </mxCell>
        <mxCell id="nCHsW1UH-Y1dxsn32Wa3-17" value="27" style="whiteSpace=wrap;html=1;aspect=fixed;strokeWidth=1;strokeColor=none;fontSize=5;fontFamily=Tahoma;fillColor=none;" vertex="1" parent="nCHsW1UH-Y1dxsn32Wa3-3">
          <mxGeometry x="30" y="30" width="10" height="10" as="geometry" />
        </mxCell>
        <mxCell id="nCHsW1UH-Y1dxsn32Wa3-18" value="26" style="whiteSpace=wrap;html=1;aspect=fixed;strokeWidth=1;strokeColor=none;fontSize=5;fontFamily=Tahoma;fillColor=none;" vertex="1" parent="nCHsW1UH-Y1dxsn32Wa3-3">
          <mxGeometry x="20" y="30" width="10" height="10" as="geometry" />
        </mxCell>
        <mxCell id="nCHsW1UH-Y1dxsn32Wa3-19" value="19" style="whiteSpace=wrap;html=1;aspect=fixed;strokeWidth=1;strokeColor=none;fontSize=5;fontFamily=Tahoma;fillColor=none;" vertex="1" parent="nCHsW1UH-Y1dxsn32Wa3-3">
          <mxGeometry x="30" y="20" width="10" height="10" as="geometry" />
        </mxCell>
        <mxCell id="nCHsW1UH-Y1dxsn32Wa3-20" value="32" style="whiteSpace=wrap;html=1;aspect=fixed;strokeWidth=1;strokeColor=none;fontSize=5;fontFamily=Tahoma;fillColor=none;" vertex="1" parent="nCHsW1UH-Y1dxsn32Wa3-3">
          <mxGeometry y="40" width="10" height="10" as="geometry" />
        </mxCell>
        <mxCell id="nCHsW1UH-Y1dxsn32Wa3-21" value="41" style="whiteSpace=wrap;html=1;aspect=fixed;strokeWidth=1;strokeColor=none;fontSize=5;fontFamily=Tahoma;fillColor=none;" vertex="1" parent="nCHsW1UH-Y1dxsn32Wa3-3">
          <mxGeometry x="10" y="50" width="10" height="10" as="geometry" />
        </mxCell>
        <mxCell id="nCHsW1UH-Y1dxsn32Wa3-22" value="40" style="whiteSpace=wrap;html=1;aspect=fixed;strokeWidth=1;strokeColor=none;fontSize=5;fontFamily=Tahoma;fillColor=none;" vertex="1" parent="nCHsW1UH-Y1dxsn32Wa3-3">
          <mxGeometry y="50" width="10" height="10" as="geometry" />
        </mxCell>
        <mxCell id="nCHsW1UH-Y1dxsn32Wa3-23" value="33" style="whiteSpace=wrap;html=1;aspect=fixed;strokeWidth=1;strokeColor=none;fontSize=5;fontFamily=Tahoma;fillColor=none;" vertex="1" parent="nCHsW1UH-Y1dxsn32Wa3-3">
          <mxGeometry x="10" y="40" width="10" height="10" as="geometry" />
        </mxCell>
        <mxCell id="nCHsW1UH-Y1dxsn32Wa3-24" value="34" style="whiteSpace=wrap;html=1;aspect=fixed;strokeWidth=1;strokeColor=none;fontSize=5;fontFamily=Tahoma;fillColor=none;" vertex="1" parent="nCHsW1UH-Y1dxsn32Wa3-3">
          <mxGeometry x="20" y="40" width="10" height="10" as="geometry" />
        </mxCell>
        <mxCell id="nCHsW1UH-Y1dxsn32Wa3-25" value="43" style="whiteSpace=wrap;html=1;aspect=fixed;strokeWidth=1;strokeColor=none;fontSize=5;fontFamily=Tahoma;fillColor=none;" vertex="1" parent="nCHsW1UH-Y1dxsn32Wa3-3">
          <mxGeometry x="30" y="50" width="10" height="10" as="geometry" />
        </mxCell>
        <mxCell id="nCHsW1UH-Y1dxsn32Wa3-26" value="42" style="whiteSpace=wrap;html=1;aspect=fixed;strokeWidth=1;strokeColor=none;fontSize=5;fontFamily=Tahoma;fillColor=none;" vertex="1" parent="nCHsW1UH-Y1dxsn32Wa3-3">
          <mxGeometry x="20" y="50" width="10" height="10" as="geometry" />
        </mxCell>
        <mxCell id="nCHsW1UH-Y1dxsn32Wa3-27" value="35" style="whiteSpace=wrap;html=1;aspect=fixed;strokeWidth=1;strokeColor=none;fontSize=5;fontFamily=Tahoma;fillColor=none;" vertex="1" parent="nCHsW1UH-Y1dxsn32Wa3-3">
          <mxGeometry x="30" y="40" width="10" height="10" as="geometry" />
        </mxCell>
        <mxCell id="nCHsW1UH-Y1dxsn32Wa3-28" value="4" style="whiteSpace=wrap;html=1;aspect=fixed;strokeWidth=1;strokeColor=none;fontSize=5;fontFamily=Tahoma;fillColor=none;" vertex="1" parent="nCHsW1UH-Y1dxsn32Wa3-3">
          <mxGeometry x="40" width="10" height="10" as="geometry" />
        </mxCell>
        <mxCell id="nCHsW1UH-Y1dxsn32Wa3-29" value="13" style="whiteSpace=wrap;html=1;aspect=fixed;strokeWidth=1;strokeColor=none;fontSize=5;fontFamily=Tahoma;fillColor=none;" vertex="1" parent="nCHsW1UH-Y1dxsn32Wa3-3">
          <mxGeometry x="50" y="10" width="10" height="10" as="geometry" />
        </mxCell>
        <mxCell id="nCHsW1UH-Y1dxsn32Wa3-30" value="12" style="whiteSpace=wrap;html=1;aspect=fixed;strokeWidth=1;strokeColor=none;fontSize=5;fontFamily=Tahoma;fillColor=none;" vertex="1" parent="nCHsW1UH-Y1dxsn32Wa3-3">
          <mxGeometry x="40" y="10" width="10" height="10" as="geometry" />
        </mxCell>
        <mxCell id="nCHsW1UH-Y1dxsn32Wa3-31" value="5" style="whiteSpace=wrap;html=1;aspect=fixed;strokeWidth=1;strokeColor=none;fontSize=5;fontFamily=Tahoma;fillColor=none;" vertex="1" parent="nCHsW1UH-Y1dxsn32Wa3-3">
          <mxGeometry x="50" width="10" height="10" as="geometry" />
        </mxCell>
        <mxCell id="nCHsW1UH-Y1dxsn32Wa3-32" value="20" style="whiteSpace=wrap;html=1;aspect=fixed;strokeWidth=1;strokeColor=none;fontSize=5;fontFamily=Tahoma;fillColor=none;" vertex="1" parent="nCHsW1UH-Y1dxsn32Wa3-3">
          <mxGeometry x="40" y="20" width="10" height="10" as="geometry" />
        </mxCell>
        <mxCell id="nCHsW1UH-Y1dxsn32Wa3-33" value="29" style="whiteSpace=wrap;html=1;aspect=fixed;strokeWidth=1;strokeColor=none;fontSize=5;fontFamily=Tahoma;fillColor=none;" vertex="1" parent="nCHsW1UH-Y1dxsn32Wa3-3">
          <mxGeometry x="50" y="30" width="10" height="10" as="geometry" />
        </mxCell>
        <mxCell id="nCHsW1UH-Y1dxsn32Wa3-34" value="28" style="whiteSpace=wrap;html=1;aspect=fixed;strokeWidth=1;strokeColor=none;fontSize=5;fontFamily=Tahoma;fillColor=none;" vertex="1" parent="nCHsW1UH-Y1dxsn32Wa3-3">
          <mxGeometry x="40" y="30" width="10" height="10" as="geometry" />
        </mxCell>
        <mxCell id="nCHsW1UH-Y1dxsn32Wa3-35" value="21" style="whiteSpace=wrap;html=1;aspect=fixed;strokeWidth=1;strokeColor=none;fontSize=5;fontFamily=Tahoma;fillColor=none;" vertex="1" parent="nCHsW1UH-Y1dxsn32Wa3-3">
          <mxGeometry x="50" y="20" width="10" height="10" as="geometry" />
        </mxCell>
        <mxCell id="nCHsW1UH-Y1dxsn32Wa3-36" value="6" style="whiteSpace=wrap;html=1;aspect=fixed;strokeWidth=1;strokeColor=none;fontSize=5;fontFamily=Tahoma;fillColor=none;" vertex="1" parent="nCHsW1UH-Y1dxsn32Wa3-3">
          <mxGeometry x="60" width="10" height="10" as="geometry" />
        </mxCell>
        <mxCell id="nCHsW1UH-Y1dxsn32Wa3-37" value="15" style="whiteSpace=wrap;html=1;aspect=fixed;strokeWidth=1;strokeColor=none;fontSize=5;fontFamily=Tahoma;fillColor=none;" vertex="1" parent="nCHsW1UH-Y1dxsn32Wa3-3">
          <mxGeometry x="70" y="10" width="10" height="10" as="geometry" />
        </mxCell>
        <mxCell id="nCHsW1UH-Y1dxsn32Wa3-38" value="14" style="whiteSpace=wrap;html=1;aspect=fixed;strokeWidth=1;strokeColor=none;fontSize=5;fontFamily=Tahoma;fillColor=none;" vertex="1" parent="nCHsW1UH-Y1dxsn32Wa3-3">
          <mxGeometry x="60" y="10" width="10" height="10" as="geometry" />
        </mxCell>
        <mxCell id="nCHsW1UH-Y1dxsn32Wa3-39" value="7" style="whiteSpace=wrap;html=1;aspect=fixed;strokeWidth=1;strokeColor=none;fontSize=5;fontFamily=Tahoma;fillColor=none;" vertex="1" parent="nCHsW1UH-Y1dxsn32Wa3-3">
          <mxGeometry x="70" width="10" height="10" as="geometry" />
        </mxCell>
        <mxCell id="nCHsW1UH-Y1dxsn32Wa3-40" value="22" style="whiteSpace=wrap;html=1;aspect=fixed;strokeWidth=1;strokeColor=none;fontSize=5;fontFamily=Tahoma;fillColor=none;" vertex="1" parent="nCHsW1UH-Y1dxsn32Wa3-3">
          <mxGeometry x="60" y="20" width="10" height="10" as="geometry" />
        </mxCell>
        <mxCell id="nCHsW1UH-Y1dxsn32Wa3-41" value="31" style="whiteSpace=wrap;html=1;aspect=fixed;strokeWidth=1;strokeColor=none;fontSize=5;fontFamily=Tahoma;fillColor=none;" vertex="1" parent="nCHsW1UH-Y1dxsn32Wa3-3">
          <mxGeometry x="70" y="30" width="10" height="10" as="geometry" />
        </mxCell>
        <mxCell id="nCHsW1UH-Y1dxsn32Wa3-42" value="30" style="whiteSpace=wrap;html=1;aspect=fixed;strokeWidth=1;strokeColor=none;fontSize=5;fontFamily=Tahoma;fillColor=none;" vertex="1" parent="nCHsW1UH-Y1dxsn32Wa3-3">
          <mxGeometry x="60" y="30" width="10" height="10" as="geometry" />
        </mxCell>
        <mxCell id="nCHsW1UH-Y1dxsn32Wa3-43" value="23" style="whiteSpace=wrap;html=1;aspect=fixed;strokeWidth=1;strokeColor=none;fontSize=5;fontFamily=Tahoma;fillColor=none;" vertex="1" parent="nCHsW1UH-Y1dxsn32Wa3-3">
          <mxGeometry x="70" y="20" width="10" height="10" as="geometry" />
        </mxCell>
        <mxCell id="nCHsW1UH-Y1dxsn32Wa3-44" value="36" style="whiteSpace=wrap;html=1;aspect=fixed;strokeWidth=1;strokeColor=none;fontSize=5;fontFamily=Tahoma;fillColor=none;" vertex="1" parent="nCHsW1UH-Y1dxsn32Wa3-3">
          <mxGeometry x="40" y="40" width="10" height="10" as="geometry" />
        </mxCell>
        <mxCell id="nCHsW1UH-Y1dxsn32Wa3-45" value="45" style="whiteSpace=wrap;html=1;aspect=fixed;strokeWidth=1;strokeColor=none;fontSize=5;fontFamily=Tahoma;fillColor=none;" vertex="1" parent="nCHsW1UH-Y1dxsn32Wa3-3">
          <mxGeometry x="50" y="50" width="10" height="10" as="geometry" />
        </mxCell>
        <mxCell id="nCHsW1UH-Y1dxsn32Wa3-46" value="44" style="whiteSpace=wrap;html=1;aspect=fixed;strokeWidth=1;strokeColor=none;fontSize=5;fontFamily=Tahoma;fillColor=none;" vertex="1" parent="nCHsW1UH-Y1dxsn32Wa3-3">
          <mxGeometry x="40" y="50" width="10" height="10" as="geometry" />
        </mxCell>
        <mxCell id="nCHsW1UH-Y1dxsn32Wa3-47" value="37" style="whiteSpace=wrap;html=1;aspect=fixed;strokeWidth=1;strokeColor=none;fontSize=5;fontFamily=Tahoma;fillColor=none;" vertex="1" parent="nCHsW1UH-Y1dxsn32Wa3-3">
          <mxGeometry x="50" y="40" width="10" height="10" as="geometry" />
        </mxCell>
        <mxCell id="nCHsW1UH-Y1dxsn32Wa3-48" value="38" style="whiteSpace=wrap;html=1;aspect=fixed;strokeWidth=1;strokeColor=none;fontSize=5;fontFamily=Tahoma;fillColor=none;" vertex="1" parent="nCHsW1UH-Y1dxsn32Wa3-3">
          <mxGeometry x="60" y="40" width="10" height="10" as="geometry" />
        </mxCell>
        <mxCell id="nCHsW1UH-Y1dxsn32Wa3-49" value="47" style="whiteSpace=wrap;html=1;aspect=fixed;strokeWidth=1;strokeColor=none;fontSize=5;fontFamily=Tahoma;fillColor=none;" vertex="1" parent="nCHsW1UH-Y1dxsn32Wa3-3">
          <mxGeometry x="70" y="50" width="10" height="10" as="geometry" />
        </mxCell>
        <mxCell id="nCHsW1UH-Y1dxsn32Wa3-50" value="46" style="whiteSpace=wrap;html=1;aspect=fixed;strokeWidth=1;strokeColor=none;fontSize=5;fontFamily=Tahoma;fillColor=none;" vertex="1" parent="nCHsW1UH-Y1dxsn32Wa3-3">
          <mxGeometry x="60" y="50" width="10" height="10" as="geometry" />
        </mxCell>
        <mxCell id="nCHsW1UH-Y1dxsn32Wa3-51" value="39" style="whiteSpace=wrap;html=1;aspect=fixed;strokeWidth=1;strokeColor=none;fontSize=5;fontFamily=Tahoma;fillColor=none;" vertex="1" parent="nCHsW1UH-Y1dxsn32Wa3-3">
          <mxGeometry x="70" y="40" width="10" height="10" as="geometry" />
        </mxCell>
        <mxCell id="EgG5US5XDcpD_LXcHYMf-0" value="" style="endArrow=none;dashed=1;html=1;rounded=0;entryX=0;entryY=0;entryDx=0;entryDy=0;exitX=1;exitY=0;exitDx=0;exitDy=0;strokeWidth=0.5;strokeColor=#CFCFCF;fontSize=5;fontFamily=Tahoma;" edge="1" parent="nCHsW1UH-Y1dxsn32Wa3-3" source="nCHsW1UH-Y1dxsn32Wa3-49" target="nCHsW1UH-Y1dxsn32Wa3-22">
          <mxGeometry width="50" height="50" relative="1" as="geometry">
            <mxPoint x="70" y="70" as="sourcePoint" />
            <mxPoint x="70" y="10" as="targetPoint" />
          </mxGeometry>
        </mxCell>
        <mxCell id="nCHsW1UH-Y1dxsn32Wa3-70" value="" style="rounded=0;whiteSpace=wrap;html=1;fillColor=none;fontSize=5;fontFamily=Tahoma;" vertex="1" parent="nCHsW1UH-Y1dxsn32Wa3-3">
          <mxGeometry width="80" height="60" as="geometry" />
        </mxCell>
      </root>
    </mxGraphModel>
  </diagram>
  <diagram name="packed" id="snhxxDHDTNbqBV9duYii">
    <mxGraphModel dx="357" dy="315" grid="1" gridSize="10" guides="1" tooltips="1" connect="1" arrows="1" fold="1" page="1" pageScale="1" pageWidth="850" pageHeight="1100" math="0" shadow="0">
      <root>
        <mxCell id="0" />
        <mxCell id="1" parent="0" />
        <mxCell id="UL2W5s986irqLUqF3foX-220" value="" style="endArrow=none;dashed=1;html=1;rounded=0;entryX=0.75;entryY=0;entryDx=0;entryDy=0;exitX=0.75;exitY=1;exitDx=0;exitDy=0;strokeWidth=0.5;strokeColor=#CFCFCF;fontSize=5;fontFamily=Tahoma;" edge="1" parent="1">
          <mxGeometry width="50" height="50" relative="1" as="geometry">
            <mxPoint x="60" y="60" as="sourcePoint" />
            <mxPoint x="60" as="targetPoint" />
          </mxGeometry>
        </mxCell>
        <mxCell id="UL2W5s986irqLUqF3foX-205" value="" style="group;strokeColor=none;fillColor=none;fontSize=5;fontFamily=Tahoma;" vertex="1" connectable="0" parent="1">
          <mxGeometry width="80" height="60" as="geometry" />
        </mxCell>
        <mxCell id="UL2W5s986irqLUqF3foX-1" value="0" style="whiteSpace=wrap;html=1;aspect=fixed;strokeWidth=1;strokeColor=none;fontSize=5;fontFamily=Tahoma;fillColor=none;" vertex="1" parent="UL2W5s986irqLUqF3foX-205">
          <mxGeometry width="10" height="10" as="geometry" />
        </mxCell>
        <mxCell id="UL2W5s986irqLUqF3foX-3" value="5" style="whiteSpace=wrap;html=1;aspect=fixed;strokeWidth=1;strokeColor=none;fontSize=5;fontFamily=Tahoma;fillColor=none;" vertex="1" parent="UL2W5s986irqLUqF3foX-205">
          <mxGeometry x="10" y="10" width="10" height="10" as="geometry" />
        </mxCell>
        <mxCell id="UL2W5s986irqLUqF3foX-5" value="4" style="whiteSpace=wrap;html=1;aspect=fixed;strokeWidth=1;strokeColor=none;fontSize=5;fontFamily=Tahoma;fillColor=none;" vertex="1" parent="UL2W5s986irqLUqF3foX-205">
          <mxGeometry y="10" width="10" height="10" as="geometry" />
        </mxCell>
        <mxCell id="UL2W5s986irqLUqF3foX-6" value="1" style="whiteSpace=wrap;html=1;aspect=fixed;strokeWidth=1;strokeColor=none;fontSize=5;fontFamily=Tahoma;fillColor=none;" vertex="1" parent="UL2W5s986irqLUqF3foX-205">
          <mxGeometry x="10" width="10" height="10" as="geometry" />
        </mxCell>
        <mxCell id="UL2W5s986irqLUqF3foX-7" value="8" style="whiteSpace=wrap;html=1;aspect=fixed;strokeWidth=1;strokeColor=none;fontSize=5;fontFamily=Tahoma;fillColor=none;" vertex="1" parent="UL2W5s986irqLUqF3foX-205">
          <mxGeometry y="20" width="10" height="10" as="geometry" />
        </mxCell>
        <mxCell id="UL2W5s986irqLUqF3foX-8" value="13" style="whiteSpace=wrap;html=1;aspect=fixed;strokeWidth=1;strokeColor=none;fontSize=5;fontFamily=Tahoma;fillColor=none;" vertex="1" parent="UL2W5s986irqLUqF3foX-205">
          <mxGeometry x="10" y="30" width="10" height="10" as="geometry" />
        </mxCell>
        <mxCell id="UL2W5s986irqLUqF3foX-9" value="12" style="whiteSpace=wrap;html=1;aspect=fixed;strokeWidth=1;strokeColor=none;fontSize=5;fontFamily=Tahoma;fillColor=none;" vertex="1" parent="UL2W5s986irqLUqF3foX-205">
          <mxGeometry y="30" width="10" height="10" as="geometry" />
        </mxCell>
        <mxCell id="UL2W5s986irqLUqF3foX-10" value="9" style="whiteSpace=wrap;html=1;aspect=fixed;strokeWidth=1;strokeColor=none;fontSize=5;fontFamily=Tahoma;fillColor=none;" vertex="1" parent="UL2W5s986irqLUqF3foX-205">
          <mxGeometry x="10" y="20" width="10" height="10" as="geometry" />
        </mxCell>
        <mxCell id="UL2W5s986irqLUqF3foX-11" value="2" style="whiteSpace=wrap;html=1;aspect=fixed;strokeWidth=1;strokeColor=none;fontSize=5;fontFamily=Tahoma;fillColor=none;" vertex="1" parent="UL2W5s986irqLUqF3foX-205">
          <mxGeometry x="20" width="10" height="10" as="geometry" />
        </mxCell>
        <mxCell id="UL2W5s986irqLUqF3foX-12" value="7" style="whiteSpace=wrap;html=1;aspect=fixed;strokeWidth=1;strokeColor=none;fontSize=5;fontFamily=Tahoma;fillColor=none;" vertex="1" parent="UL2W5s986irqLUqF3foX-205">
          <mxGeometry x="30" y="10" width="10" height="10" as="geometry" />
        </mxCell>
        <mxCell id="UL2W5s986irqLUqF3foX-13" value="6" style="whiteSpace=wrap;html=1;aspect=fixed;strokeWidth=1;strokeColor=none;fontSize=5;fontFamily=Tahoma;fillColor=none;" vertex="1" parent="UL2W5s986irqLUqF3foX-205">
          <mxGeometry x="20" y="10" width="10" height="10" as="geometry" />
        </mxCell>
        <mxCell id="UL2W5s986irqLUqF3foX-14" value="3" style="whiteSpace=wrap;html=1;aspect=fixed;strokeWidth=1;strokeColor=none;fontSize=5;fontFamily=Tahoma;fillColor=none;" vertex="1" parent="UL2W5s986irqLUqF3foX-205">
          <mxGeometry x="30" width="10" height="10" as="geometry" />
        </mxCell>
        <mxCell id="UL2W5s986irqLUqF3foX-15" value="10" style="whiteSpace=wrap;html=1;aspect=fixed;strokeWidth=1;strokeColor=none;fontSize=5;fontFamily=Tahoma;fillColor=none;" vertex="1" parent="UL2W5s986irqLUqF3foX-205">
          <mxGeometry x="20" y="20" width="10" height="10" as="geometry" />
        </mxCell>
        <mxCell id="UL2W5s986irqLUqF3foX-16" value="15" style="whiteSpace=wrap;html=1;aspect=fixed;strokeWidth=1;strokeColor=none;fontSize=5;fontFamily=Tahoma;fillColor=none;" vertex="1" parent="UL2W5s986irqLUqF3foX-205">
          <mxGeometry x="30" y="30" width="10" height="10" as="geometry" />
        </mxCell>
        <mxCell id="UL2W5s986irqLUqF3foX-17" value="14" style="whiteSpace=wrap;html=1;aspect=fixed;strokeWidth=1;strokeColor=none;fontSize=5;fontFamily=Tahoma;fillColor=none;" vertex="1" parent="UL2W5s986irqLUqF3foX-205">
          <mxGeometry x="20" y="30" width="10" height="10" as="geometry" />
        </mxCell>
        <mxCell id="UL2W5s986irqLUqF3foX-18" value="11" style="whiteSpace=wrap;html=1;aspect=fixed;strokeWidth=1;strokeColor=none;fontSize=5;fontFamily=Tahoma;fillColor=none;" vertex="1" parent="UL2W5s986irqLUqF3foX-205">
          <mxGeometry x="30" y="20" width="10" height="10" as="geometry" />
        </mxCell>
        <mxCell id="UL2W5s986irqLUqF3foX-19" value="16" style="whiteSpace=wrap;html=1;aspect=fixed;strokeWidth=1;strokeColor=none;fontSize=5;fontFamily=Tahoma;fillColor=none;" vertex="1" parent="UL2W5s986irqLUqF3foX-205">
          <mxGeometry y="40" width="10" height="10" as="geometry" />
        </mxCell>
        <mxCell id="UL2W5s986irqLUqF3foX-20" value="21" style="whiteSpace=wrap;html=1;aspect=fixed;strokeWidth=1;strokeColor=none;fontSize=5;fontFamily=Tahoma;fillColor=none;" vertex="1" parent="UL2W5s986irqLUqF3foX-205">
          <mxGeometry x="10" y="50" width="10" height="10" as="geometry" />
        </mxCell>
        <mxCell id="UL2W5s986irqLUqF3foX-21" value="20" style="whiteSpace=wrap;html=1;aspect=fixed;strokeWidth=1;strokeColor=none;fontSize=5;fontFamily=Tahoma;fillColor=none;" vertex="1" parent="UL2W5s986irqLUqF3foX-205">
          <mxGeometry y="50" width="10" height="10" as="geometry" />
        </mxCell>
        <mxCell id="UL2W5s986irqLUqF3foX-22" value="17" style="whiteSpace=wrap;html=1;aspect=fixed;strokeWidth=1;strokeColor=none;fontSize=5;fontFamily=Tahoma;fillColor=none;" vertex="1" parent="UL2W5s986irqLUqF3foX-205">
          <mxGeometry x="10" y="40" width="10" height="10" as="geometry" />
        </mxCell>
        <mxCell id="UL2W5s986irqLUqF3foX-27" value="18" style="whiteSpace=wrap;html=1;aspect=fixed;strokeWidth=1;strokeColor=none;fontSize=5;fontFamily=Tahoma;fillColor=none;" vertex="1" parent="UL2W5s986irqLUqF3foX-205">
          <mxGeometry x="20" y="40" width="10" height="10" as="geometry" />
        </mxCell>
        <mxCell id="UL2W5s986irqLUqF3foX-28" value="23" style="whiteSpace=wrap;html=1;aspect=fixed;strokeWidth=1;strokeColor=none;fontSize=5;fontFamily=Tahoma;fillColor=none;" vertex="1" parent="UL2W5s986irqLUqF3foX-205">
          <mxGeometry x="30" y="50" width="10" height="10" as="geometry" />
        </mxCell>
        <mxCell id="UL2W5s986irqLUqF3foX-29" value="22" style="whiteSpace=wrap;html=1;aspect=fixed;strokeWidth=1;strokeColor=none;fontSize=5;fontFamily=Tahoma;fillColor=none;" vertex="1" parent="UL2W5s986irqLUqF3foX-205">
          <mxGeometry x="20" y="50" width="10" height="10" as="geometry" />
        </mxCell>
        <mxCell id="UL2W5s986irqLUqF3foX-30" value="19" style="whiteSpace=wrap;html=1;aspect=fixed;strokeWidth=1;strokeColor=none;fontSize=5;fontFamily=Tahoma;fillColor=none;" vertex="1" parent="UL2W5s986irqLUqF3foX-205">
          <mxGeometry x="30" y="40" width="10" height="10" as="geometry" />
        </mxCell>
        <mxCell id="UL2W5s986irqLUqF3foX-35" value="24" style="whiteSpace=wrap;html=1;aspect=fixed;strokeWidth=1;strokeColor=none;fontSize=5;fontFamily=Tahoma;fillColor=none;" vertex="1" parent="UL2W5s986irqLUqF3foX-205">
          <mxGeometry x="40" width="10" height="10" as="geometry" />
        </mxCell>
        <mxCell id="UL2W5s986irqLUqF3foX-36" value="29" style="whiteSpace=wrap;html=1;aspect=fixed;strokeWidth=1;strokeColor=none;fontSize=5;fontFamily=Tahoma;fillColor=none;" vertex="1" parent="UL2W5s986irqLUqF3foX-205">
          <mxGeometry x="50" y="10" width="10" height="10" as="geometry" />
        </mxCell>
        <mxCell id="UL2W5s986irqLUqF3foX-37" value="28" style="whiteSpace=wrap;html=1;aspect=fixed;strokeWidth=1;strokeColor=none;fontSize=5;fontFamily=Tahoma;fillColor=none;" vertex="1" parent="UL2W5s986irqLUqF3foX-205">
          <mxGeometry x="40" y="10" width="10" height="10" as="geometry" />
        </mxCell>
        <mxCell id="UL2W5s986irqLUqF3foX-38" value="25" style="whiteSpace=wrap;html=1;aspect=fixed;strokeWidth=1;strokeColor=none;fontSize=5;fontFamily=Tahoma;fillColor=none;" vertex="1" parent="UL2W5s986irqLUqF3foX-205">
          <mxGeometry x="50" width="10" height="10" as="geometry" />
        </mxCell>
        <mxCell id="UL2W5s986irqLUqF3foX-39" value="32" style="whiteSpace=wrap;html=1;aspect=fixed;strokeWidth=1;strokeColor=none;fontSize=5;fontFamily=Tahoma;fillColor=none;" vertex="1" parent="UL2W5s986irqLUqF3foX-205">
          <mxGeometry x="40" y="20" width="10" height="10" as="geometry" />
        </mxCell>
        <mxCell id="UL2W5s986irqLUqF3foX-40" value="37" style="whiteSpace=wrap;html=1;aspect=fixed;strokeWidth=1;strokeColor=none;fontSize=5;fontFamily=Tahoma;fillColor=none;" vertex="1" parent="UL2W5s986irqLUqF3foX-205">
          <mxGeometry x="50" y="30" width="10" height="10" as="geometry" />
        </mxCell>
        <mxCell id="UL2W5s986irqLUqF3foX-41" value="36" style="whiteSpace=wrap;html=1;aspect=fixed;strokeWidth=1;strokeColor=none;fontSize=5;fontFamily=Tahoma;fillColor=none;" vertex="1" parent="UL2W5s986irqLUqF3foX-205">
          <mxGeometry x="40" y="30" width="10" height="10" as="geometry" />
        </mxCell>
        <mxCell id="UL2W5s986irqLUqF3foX-42" value="33" style="whiteSpace=wrap;html=1;aspect=fixed;strokeWidth=1;strokeColor=none;fontSize=5;fontFamily=Tahoma;fillColor=none;" vertex="1" parent="UL2W5s986irqLUqF3foX-205">
          <mxGeometry x="50" y="20" width="10" height="10" as="geometry" />
        </mxCell>
        <mxCell id="UL2W5s986irqLUqF3foX-43" value="26" style="whiteSpace=wrap;html=1;aspect=fixed;strokeWidth=1;strokeColor=none;fontSize=5;fontFamily=Tahoma;fillColor=none;" vertex="1" parent="UL2W5s986irqLUqF3foX-205">
          <mxGeometry x="60" width="10" height="10" as="geometry" />
        </mxCell>
        <mxCell id="UL2W5s986irqLUqF3foX-44" value="31" style="whiteSpace=wrap;html=1;aspect=fixed;strokeWidth=1;strokeColor=none;fontSize=5;fontFamily=Tahoma;fillColor=none;" vertex="1" parent="UL2W5s986irqLUqF3foX-205">
          <mxGeometry x="70" y="10" width="10" height="10" as="geometry" />
        </mxCell>
        <mxCell id="UL2W5s986irqLUqF3foX-45" value="30" style="whiteSpace=wrap;html=1;aspect=fixed;strokeWidth=1;strokeColor=none;fontSize=5;fontFamily=Tahoma;fillColor=none;" vertex="1" parent="UL2W5s986irqLUqF3foX-205">
          <mxGeometry x="60" y="10" width="10" height="10" as="geometry" />
        </mxCell>
        <mxCell id="UL2W5s986irqLUqF3foX-46" value="27" style="whiteSpace=wrap;html=1;aspect=fixed;strokeWidth=1;strokeColor=none;fontSize=5;fontFamily=Tahoma;fillColor=none;" vertex="1" parent="UL2W5s986irqLUqF3foX-205">
          <mxGeometry x="70" width="10" height="10" as="geometry" />
        </mxCell>
        <mxCell id="UL2W5s986irqLUqF3foX-47" value="34" style="whiteSpace=wrap;html=1;aspect=fixed;strokeWidth=1;strokeColor=none;fontSize=5;fontFamily=Tahoma;fillColor=none;" vertex="1" parent="UL2W5s986irqLUqF3foX-205">
          <mxGeometry x="60" y="20" width="10" height="10" as="geometry" />
        </mxCell>
        <mxCell id="UL2W5s986irqLUqF3foX-48" value="39" style="whiteSpace=wrap;html=1;aspect=fixed;strokeWidth=1;strokeColor=none;fontSize=5;fontFamily=Tahoma;fillColor=none;" vertex="1" parent="UL2W5s986irqLUqF3foX-205">
          <mxGeometry x="70" y="30" width="10" height="10" as="geometry" />
        </mxCell>
        <mxCell id="UL2W5s986irqLUqF3foX-49" value="38" style="whiteSpace=wrap;html=1;aspect=fixed;strokeWidth=1;strokeColor=none;fontSize=5;fontFamily=Tahoma;fillColor=none;" vertex="1" parent="UL2W5s986irqLUqF3foX-205">
          <mxGeometry x="60" y="30" width="10" height="10" as="geometry" />
        </mxCell>
        <mxCell id="UL2W5s986irqLUqF3foX-50" value="35" style="whiteSpace=wrap;html=1;aspect=fixed;strokeWidth=1;strokeColor=none;fontSize=5;fontFamily=Tahoma;fillColor=none;" vertex="1" parent="UL2W5s986irqLUqF3foX-205">
          <mxGeometry x="70" y="20" width="10" height="10" as="geometry" />
        </mxCell>
        <mxCell id="UL2W5s986irqLUqF3foX-51" value="40" style="whiteSpace=wrap;html=1;aspect=fixed;strokeWidth=1;strokeColor=none;fontSize=5;fontFamily=Tahoma;fillColor=none;" vertex="1" parent="UL2W5s986irqLUqF3foX-205">
          <mxGeometry x="40" y="40" width="10" height="10" as="geometry" />
        </mxCell>
        <mxCell id="UL2W5s986irqLUqF3foX-52" value="45" style="whiteSpace=wrap;html=1;aspect=fixed;strokeWidth=1;strokeColor=none;fontSize=5;fontFamily=Tahoma;fillColor=none;" vertex="1" parent="UL2W5s986irqLUqF3foX-205">
          <mxGeometry x="50" y="50" width="10" height="10" as="geometry" />
        </mxCell>
        <mxCell id="UL2W5s986irqLUqF3foX-53" value="44" style="whiteSpace=wrap;html=1;aspect=fixed;strokeWidth=1;strokeColor=none;fontSize=5;fontFamily=Tahoma;fillColor=none;" vertex="1" parent="UL2W5s986irqLUqF3foX-205">
          <mxGeometry x="40" y="50" width="10" height="10" as="geometry" />
        </mxCell>
        <mxCell id="UL2W5s986irqLUqF3foX-54" value="41" style="whiteSpace=wrap;html=1;aspect=fixed;strokeWidth=1;strokeColor=none;fontSize=5;fontFamily=Tahoma;fillColor=none;" vertex="1" parent="UL2W5s986irqLUqF3foX-205">
          <mxGeometry x="50" y="40" width="10" height="10" as="geometry" />
        </mxCell>
        <mxCell id="UL2W5s986irqLUqF3foX-59" value="42" style="whiteSpace=wrap;html=1;aspect=fixed;strokeWidth=1;strokeColor=none;fontSize=5;fontFamily=Tahoma;fillColor=none;" vertex="1" parent="UL2W5s986irqLUqF3foX-205">
          <mxGeometry x="60" y="40" width="10" height="10" as="geometry" />
        </mxCell>
        <mxCell id="UL2W5s986irqLUqF3foX-60" value="47" style="whiteSpace=wrap;html=1;aspect=fixed;strokeWidth=1;strokeColor=none;fontSize=5;fontFamily=Tahoma;fillColor=none;" vertex="1" parent="UL2W5s986irqLUqF3foX-205">
          <mxGeometry x="70" y="50" width="10" height="10" as="geometry" />
        </mxCell>
        <mxCell id="UL2W5s986irqLUqF3foX-61" value="46" style="whiteSpace=wrap;html=1;aspect=fixed;strokeWidth=1;strokeColor=none;fontSize=5;fontFamily=Tahoma;fillColor=none;" vertex="1" parent="UL2W5s986irqLUqF3foX-205">
          <mxGeometry x="60" y="50" width="10" height="10" as="geometry" />
        </mxCell>
        <mxCell id="UL2W5s986irqLUqF3foX-62" value="43" style="whiteSpace=wrap;html=1;aspect=fixed;strokeWidth=1;strokeColor=none;fontSize=5;fontFamily=Tahoma;fillColor=none;" vertex="1" parent="UL2W5s986irqLUqF3foX-205">
          <mxGeometry x="70" y="40" width="10" height="10" as="geometry" />
        </mxCell>
        <mxCell id="UL2W5s986irqLUqF3foX-67" value="" style="whiteSpace=wrap;html=1;fillColor=none;strokeWidth=0.5;strokeColor=#8F8F8F;fontSize=5;fontFamily=Tahoma;" vertex="1" parent="UL2W5s986irqLUqF3foX-205">
          <mxGeometry width="40" height="10" as="geometry" />
        </mxCell>
        <mxCell id="UL2W5s986irqLUqF3foX-206" value="" style="whiteSpace=wrap;html=1;fillColor=none;strokeWidth=0.5;strokeColor=#8F8F8F;fontSize=5;fontFamily=Tahoma;" vertex="1" parent="1">
          <mxGeometry y="10" width="40" height="10" as="geometry" />
        </mxCell>
        <mxCell id="UL2W5s986irqLUqF3foX-207" value="" style="whiteSpace=wrap;html=1;fillColor=none;strokeWidth=0.5;strokeColor=#8F8F8F;fontSize=5;fontFamily=Tahoma;" vertex="1" parent="1">
          <mxGeometry y="20" width="40" height="10" as="geometry" />
        </mxCell>
        <mxCell id="UL2W5s986irqLUqF3foX-208" value="" style="whiteSpace=wrap;html=1;fillColor=none;strokeWidth=0.5;strokeColor=#8F8F8F;fontSize=5;fontFamily=Tahoma;" vertex="1" parent="1">
          <mxGeometry y="30" width="40" height="10" as="geometry" />
        </mxCell>
        <mxCell id="UL2W5s986irqLUqF3foX-209" value="" style="whiteSpace=wrap;html=1;fillColor=none;strokeWidth=0.5;strokeColor=#8F8F8F;fontSize=5;fontFamily=Tahoma;" vertex="1" parent="1">
          <mxGeometry y="40" width="40" height="10" as="geometry" />
        </mxCell>
        <mxCell id="UL2W5s986irqLUqF3foX-211" value="" style="whiteSpace=wrap;html=1;fillColor=none;strokeWidth=0.5;strokeColor=#8F8F8F;fontSize=5;fontFamily=Tahoma;" vertex="1" parent="1">
          <mxGeometry y="50" width="40" height="10" as="geometry" />
        </mxCell>
        <mxCell id="UL2W5s986irqLUqF3foX-212" value="" style="whiteSpace=wrap;html=1;fillColor=none;strokeWidth=0.5;strokeColor=#8F8F8F;fontSize=5;fontFamily=Tahoma;" vertex="1" parent="1">
          <mxGeometry x="40" y="50" width="40" height="10" as="geometry" />
        </mxCell>
        <mxCell id="UL2W5s986irqLUqF3foX-213" value="" style="whiteSpace=wrap;html=1;fillColor=none;strokeWidth=0.5;strokeColor=#8F8F8F;fontSize=5;fontFamily=Tahoma;" vertex="1" parent="1">
          <mxGeometry x="40" y="40" width="40" height="10" as="geometry" />
        </mxCell>
        <mxCell id="UL2W5s986irqLUqF3foX-214" value="" style="whiteSpace=wrap;html=1;fillColor=none;strokeWidth=0.5;strokeColor=#8F8F8F;fontSize=5;fontFamily=Tahoma;" vertex="1" parent="1">
          <mxGeometry x="40" y="30" width="40" height="10" as="geometry" />
        </mxCell>
        <mxCell id="UL2W5s986irqLUqF3foX-215" value="" style="whiteSpace=wrap;html=1;fillColor=none;strokeWidth=0.5;strokeColor=#8F8F8F;fontSize=5;fontFamily=Tahoma;" vertex="1" parent="1">
          <mxGeometry x="40" y="20" width="40" height="10" as="geometry" />
        </mxCell>
        <mxCell id="UL2W5s986irqLUqF3foX-217" value="" style="whiteSpace=wrap;html=1;fillColor=none;strokeWidth=0.5;strokeColor=#8F8F8F;fontSize=5;fontFamily=Tahoma;" vertex="1" parent="1">
          <mxGeometry x="40" y="10" width="40" height="10" as="geometry" />
        </mxCell>
        <mxCell id="UL2W5s986irqLUqF3foX-218" value="" style="whiteSpace=wrap;html=1;fillColor=none;strokeWidth=0.5;strokeColor=#8F8F8F;fontSize=5;fontFamily=Tahoma;" vertex="1" parent="1">
          <mxGeometry x="40" width="40" height="10" as="geometry" />
        </mxCell>
        <mxCell id="UL2W5s986irqLUqF3foX-221" value="" style="endArrow=none;dashed=1;html=1;rounded=0;entryX=0.75;entryY=0;entryDx=0;entryDy=0;exitX=0.75;exitY=1;exitDx=0;exitDy=0;strokeWidth=0.5;strokeColor=#CFCFCF;fontSize=5;fontFamily=Tahoma;" edge="1" parent="1">
          <mxGeometry width="50" height="50" relative="1" as="geometry">
            <mxPoint x="50" y="60" as="sourcePoint" />
            <mxPoint x="50" as="targetPoint" />
          </mxGeometry>
        </mxCell>
        <mxCell id="UL2W5s986irqLUqF3foX-222" value="" style="endArrow=none;dashed=1;html=1;rounded=0;entryX=0.75;entryY=0;entryDx=0;entryDy=0;exitX=0.75;exitY=1;exitDx=0;exitDy=0;strokeWidth=0.5;strokeColor=#CFCFCF;fontSize=5;fontFamily=Tahoma;" edge="1" parent="1">
          <mxGeometry width="50" height="50" relative="1" as="geometry">
            <mxPoint x="30" y="60" as="sourcePoint" />
            <mxPoint x="30" as="targetPoint" />
          </mxGeometry>
        </mxCell>
        <mxCell id="UL2W5s986irqLUqF3foX-223" value="" style="endArrow=none;dashed=1;html=1;rounded=0;entryX=0.75;entryY=0;entryDx=0;entryDy=0;exitX=0.75;exitY=1;exitDx=0;exitDy=0;strokeWidth=0.5;strokeColor=#CFCFCF;fontSize=5;fontFamily=Tahoma;" edge="1" parent="1">
          <mxGeometry width="50" height="50" relative="1" as="geometry">
            <mxPoint x="20" y="60" as="sourcePoint" />
            <mxPoint x="20" as="targetPoint" />
          </mxGeometry>
        </mxCell>
        <mxCell id="UL2W5s986irqLUqF3foX-224" value="" style="endArrow=none;dashed=1;html=1;rounded=0;entryX=0.75;entryY=0;entryDx=0;entryDy=0;exitX=0.75;exitY=1;exitDx=0;exitDy=0;strokeWidth=0.5;strokeColor=#CFCFCF;fontSize=5;fontFamily=Tahoma;" edge="1" parent="1">
          <mxGeometry width="50" height="50" relative="1" as="geometry">
            <mxPoint x="10" y="60" as="sourcePoint" />
            <mxPoint x="10" as="targetPoint" />
          </mxGeometry>
        </mxCell>
        <mxCell id="UL2W5s986irqLUqF3foX-225" value="" style="endArrow=none;dashed=1;html=1;rounded=0;entryX=0.75;entryY=0;entryDx=0;entryDy=0;exitX=0.75;exitY=1;exitDx=0;exitDy=0;strokeWidth=0.5;strokeColor=#CFCFCF;fontSize=5;fontFamily=Tahoma;" edge="1" parent="1">
          <mxGeometry width="50" height="50" relative="1" as="geometry">
            <mxPoint x="70" y="60" as="sourcePoint" />
            <mxPoint x="70" as="targetPoint" />
          </mxGeometry>
        </mxCell>
        <mxCell id="UL2W5s986irqLUqF3foX-226" value="" style="endArrow=none;html=1;rounded=0;entryX=0;entryY=0;entryDx=0;entryDy=0;exitX=0;exitY=1;exitDx=0;exitDy=0;strokeWidth=0.5;fontSize=5;fontFamily=Tahoma;" edge="1" parent="1" source="UL2W5s986irqLUqF3foX-212" target="UL2W5s986irqLUqF3foX-218">
          <mxGeometry width="50" height="50" relative="1" as="geometry">
            <mxPoint x="10" y="80" as="sourcePoint" />
            <mxPoint x="60" y="30" as="targetPoint" />
          </mxGeometry>
        </mxCell>
        <mxCell id="UL2W5s986irqLUqF3foX-227" value="" style="rounded=0;whiteSpace=wrap;html=1;fillColor=none;fontSize=5;fontFamily=Tahoma;" vertex="1" parent="1">
          <mxGeometry width="80" height="60" as="geometry" />
        </mxCell>
      </root>
    </mxGraphModel>
  </diagram>
</mxfile>
